{
	"asset":{
		"generator":"Khronos glTF Blender I/O v3.6.28",
		"version":"2.0"
	},
	"scene":0,
	"scenes":[
		{
			"name":"Scene",
			"nodes":[
				0
			]
		}
	],
	"nodes":[
		{
			"mesh":0,
			"name":"Part__Feature014",
			"rotation":[
				0.7071068286895752,
				0,
				0,
				0.7071068286895752
			]
		}
	],
	"materials":[
		{
			"doubleSided":true,
			"name":"Default OBJ",
			"pbrMetallicRoughness":{
				"baseColorFactor":[
					0.800000011920929,
					0.800000011920929,
					0.800000011920929,
					1
				],
				"metallicFactor":0,
				"roughnessFactor":0.5
			}
		}
	],
	"meshes":[
		{
			"name":"Part__Feature014",
			"primitives":[
				{
					"attributes":{
						"POSITION":0,
						"NORMAL":1
					},
					"indices":2,
					"material":0
				}
			]
		}
	],
	"accessors":[
		{
			"bufferView":0,
			"componentType":5126,
			"count":164209,
			"max":[
				1744.9525146484375,
				2629.8359375,
				256
			],
			"min":[
				246.55555725097656,
				2041.802978515625,
				-91
			],
			"type":"VEC3"
		},
		{
			"bufferView":1,
			"componentType":5126,
			"count":164209,
			"type":"VEC3"
		},
		{
			"bufferView":2,
			"componentType":5125,
			"count":171618,
			"type":"SCALAR"
		}
	],
	"bufferViews":[
		{
			"buffer":0,
			"byteLength":1970508,
			"byteOffset":0,
			"target":34962
		},
		{
			"buffer":0,
			"byteLength":1970508,
			"byteOffset":1970508,
			"target":34962
		},
		{
			"buffer":0,
			"byteLength":686472,
			"byteOffset":3941016,
			"target":34963
		}
	],
	"buffers":[
		{
			"byteLength":4627488,
			"uri":"5.bin"
		}
	]
}
